# xmcd
#
# Track frame offsets:
#	150
#	12717
#	32277
#	55145
#	73310
#	79887
#	90840
#	93367
#	109062
#	112872
#	128145
#	147045
#	160030
#	174210
#
# Disc length: 2411 seconds
#
# Revision: 0
# Processed by: cddbd v1.4PL0 Copyright (c) Steve Scherf et al.
# Submitted via: dBpowerAMP V4.0
#
DISCID=a509690e
DTITLE=Muazzez Ersoy - Nostalji 11
DYEAR=1900
DGENRE=Undefined
TTITLE0=Muazzez Ersoy - Artýk Sevmeyeceðim
TTITLE1=Muazzez Ersoy - Yaðmur
TTITLE2=Muazzez Ersoy - Böyle Ayrýlýk  Olmaz
TTITLE3=Muazzez Ersoy - Gündüzüm seninle
TTITLE4=Muazzez Ersoy - Aþkýn Bahardý
TTITLE5=Muazzez Ersoy - Son Mektup
TTITLE6=Muazzez Ersoy - Tanbur Taksimi
TTITLE7=Muazzez Ersoy - Daðlar Daðlar
TTITLE8=Muazzez Ersoy - Kanun Taksimi
TTITLE9=Muazzez Ersoy - Elveda Meyhaneci
TTITLE10=Muazzez Ersoy - Albümdeki Resimler
TTITLE11=Muazzez Ersoy - Körfezdeki Üç Beþ Güzel
TTITLE12=Muazzez Ersoy - Meyhanelerde Akþam Olunca
TTITLE13=Muazzez Ersoy - Tabancamýn Sapýný
EXTD=Guven
EXTT0=
EXTT1=
EXTT2=
EXTT3=
EXTT4=
EXTT5=
EXTT6=
EXTT7=
EXTT8=
EXTT9=
EXTT10=
EXTT11=
EXTT12=
EXTT13=
PLAYORDER=
